%TF.GenerationSoftware,KiCad,Pcbnew,10.0.3*%
%TF.CreationDate,2026-06-19T10:01:34-04:00*%
%TF.ProjectId,blinking_heart_pcb_keychain,626c696e-6b69-46e6-975f-68656172745f,rev?*%
%TF.SameCoordinates,Original*%
%TF.FileFunction,Copper,L2,Bot*%
%TF.FilePolarity,Positive*%
%FSLAX46Y46*%
G04 Gerber Fmt 4.6, Leading zero omitted, Abs format (unit mm)*
G04 Created by KiCad (PCBNEW 10.0.3) date 2026-06-19 10:01:34*
%MOMM*%
%LPD*%
G01*
G04 APERTURE LIST*
G04 Aperture macros list*
%AMRoundRect*
0 Rectangle with rounded corners*
0 $1 Rounding radius*
0 $2 $3 $4 $5 $6 $7 $8 $9 X,Y pos of 4 corners*
0 Add a 4 corners polygon primitive as box body*
4,1,4,$2,$3,$4,$5,$6,$7,$8,$9,$2,$3,0*
0 Add four circle primitives for the rounded corners*
1,1,$1+$1,$2,$3*
1,1,$1+$1,$4,$5*
1,1,$1+$1,$6,$7*
1,1,$1+$1,$8,$9*
0 Add four rect primitives between the rounded corners*
20,1,$1+$1,$2,$3,$4,$5,0*
20,1,$1+$1,$4,$5,$6,$7,0*
20,1,$1+$1,$6,$7,$8,$9,0*
20,1,$1+$1,$8,$9,$2,$3,0*%
G04 Aperture macros list end*
%TA.AperFunction,ComponentPad*%
%ADD10RoundRect,0.190500X-0.444500X1.079500X-0.444500X-1.079500X0.444500X-1.079500X0.444500X1.079500X0*%
%TD*%
%TA.AperFunction,ComponentPad*%
%ADD11C,2.500000*%
%TD*%
%TA.AperFunction,ComponentPad*%
%ADD12RoundRect,0.190500X0.444500X-1.079500X0.444500X1.079500X-0.444500X1.079500X-0.444500X-1.079500X0*%
%TD*%
%TA.AperFunction,ComponentPad*%
%ADD13RoundRect,0.190500X1.079500X0.444500X-1.079500X0.444500X-1.079500X-0.444500X1.079500X-0.444500X0*%
%TD*%
%TA.AperFunction,ComponentPad*%
%ADD14RoundRect,0.190500X-1.079500X-0.444500X1.079500X-0.444500X1.079500X0.444500X-1.079500X0.444500X0*%
%TD*%
%TA.AperFunction,ComponentPad*%
%ADD15C,2.200000*%
%TD*%
%TA.AperFunction,WasherPad*%
%ADD16C,6.000000*%
%TD*%
%TA.AperFunction,ComponentPad*%
%ADD17RoundRect,0.100000X1.400000X0.500000X-1.400000X0.500000X-1.400000X-0.500000X1.400000X-0.500000X0*%
%TD*%
%TA.AperFunction,ComponentPad*%
%ADD18R,1.600000X2.400000*%
%TD*%
%TA.AperFunction,ComponentPad*%
%ADD19O,1.600000X2.400000*%
%TD*%
%TA.AperFunction,SMDPad,CuDef*%
%ADD20RoundRect,0.195000X-2.355000X-0.455000X2.355000X-0.455000X2.355000X0.455000X-2.355000X0.455000X0*%
%TD*%
%TA.AperFunction,SMDPad,CuDef*%
%ADD21RoundRect,0.594000X-1.386000X-1.386000X1.386000X-1.386000X1.386000X1.386000X-1.386000X1.386000X0*%
%TD*%
%TA.AperFunction,ViaPad*%
%ADD22C,0.600000*%
%TD*%
%TA.AperFunction,Conductor*%
%ADD23C,0.200000*%
%TD*%
G04 APERTURE END LIST*
D10*
%TO.P,R2,1*%
%TO.N,Net-(U1-DISCH)*%
X182500000Y-83750000D03*
%TO.P,R2,2*%
%TO.N,Net-(U1-THRES)*%
X182500000Y-90250000D03*
%TD*%
D11*
%TO.P,D11,1*%
%TO.N,Net-(VR1-VIN)*%
X141000000Y-99195000D03*
%TO.P,D11,2*%
%TO.N,Net-(B3-Pad2)*%
X141000000Y-105805000D03*
%TD*%
D10*
%TO.P,U2,1,OUT_5_1*%
%TO.N,Net-(U2-OUT_5)*%
X129580000Y-90975000D03*
%TO.P,U2,2,OUT_1_2*%
%TO.N,Net-(U2-OUT_1)*%
X127040000Y-90975000D03*
%TO.P,U2,3,OUT_0_3*%
%TO.N,Net-(U2-OUT_0)*%
X124500000Y-90975000D03*
%TO.P,U2,4,OUT_2_4*%
%TO.N,Net-(U2-OUT_2)*%
X121960000Y-90975000D03*
%TO.P,U2,5,OUT_6_5*%
%TO.N,Net-(U2-OUT_6)*%
X119420000Y-90975000D03*
%TO.P,U2,6,OUT_7_6*%
%TO.N,Net-(U2-OUT_7)*%
X116880000Y-90975000D03*
%TO.P,U2,7,OUT_3_7*%
%TO.N,Net-(U2-OUT_3)*%
X114340000Y-90975000D03*
%TO.P,U2,8,GND_8*%
%TO.N,GND*%
X111800000Y-90975000D03*
%TO.P,U2,9,OUT_8_9*%
%TO.N,Net-(U2-OUT_8)*%
X111800000Y-100500000D03*
%TO.P,U2,10,OUT_4_10*%
%TO.N,Net-(U2-OUT_4)*%
X114340000Y-100500000D03*
%TO.P,U2,11,OUT_9_11*%
%TO.N,Net-(U2-OUT_9)*%
X116880000Y-100500000D03*
%TO.P,U2,12,CARRY_OUT_12*%
%TO.N,unconnected-(U2-CARRY_OUT-Pad12)*%
X119420000Y-100500000D03*
%TO.P,U2,13,CLK_PAUSE_13*%
%TO.N,GND*%
X121960000Y-100500000D03*
%TO.P,U2,14,CLK_14*%
%TO.N,/CLK*%
X124500000Y-100500000D03*
%TO.P,U2,15,RESET_15*%
%TO.N,GND*%
X127040000Y-100500000D03*
%TO.P,U2,16,+5V_16*%
%TO.N,+5V*%
X129580000Y-100500000D03*
%TD*%
D12*
%TO.P,D8,1*%
%TO.N,Net-(D8-Pad1)*%
X169403348Y-65673349D03*
%TO.P,D8,2*%
%TO.N,Net-(U2-OUT_7)*%
X171943348Y-65673349D03*
%TD*%
D10*
%TO.P,D5,1*%
%TO.N,Net-(D5-Pad1)*%
X133213348Y-55673349D03*
%TO.P,D5,2*%
%TO.N,Net-(U2-OUT_4)*%
X130673348Y-55673349D03*
%TD*%
D13*
%TO.P,R11,1*%
%TO.N,Net-(D9-Pad1)*%
X150100000Y-85500000D03*
%TO.P,R11,2*%
%TO.N,GND*%
X145900000Y-85500000D03*
%TD*%
D10*
%TO.P,D4,1*%
%TO.N,Net-(D4-Pad1)*%
X124483348Y-65673349D03*
%TO.P,D4,2*%
%TO.N,Net-(U2-OUT_3)*%
X121943348Y-65673349D03*
%TD*%
D14*
%TO.P,R5,1*%
%TO.N,Net-(D3-Pad1)*%
X145900000Y-87500000D03*
%TO.P,R5,2*%
%TO.N,GND*%
X150100000Y-87500000D03*
%TD*%
D13*
%TO.P,R9,1*%
%TO.N,Net-(D7-Pad1)*%
X161600000Y-64000000D03*
%TO.P,R9,2*%
%TO.N,GND*%
X157400000Y-64000000D03*
%TD*%
%TO.P,R10,1*%
%TO.N,Net-(D8-Pad1)*%
X161600000Y-66000000D03*
%TO.P,R10,2*%
%TO.N,GND*%
X157400000Y-66000000D03*
%TD*%
D14*
%TO.P,C3,1*%
%TO.N,Net-(VR1-VIN)*%
X157500000Y-74500000D03*
%TO.P,C3,2*%
%TO.N,GND*%
X162500000Y-74500000D03*
%TD*%
D10*
%TO.P,C1,1*%
%TO.N,Net-(U1-THRES)*%
X182500000Y-93500000D03*
%TO.P,C1,2*%
%TO.N,GND*%
X182500000Y-98500000D03*
%TD*%
D14*
%TO.P,C2,1*%
%TO.N,GND*%
X172500000Y-102500000D03*
%TO.P,C2,2*%
%TO.N,+5V*%
X177500000Y-102500000D03*
%TD*%
%TO.P,R1,1*%
%TO.N,+5V*%
X170750000Y-88500000D03*
%TO.P,R1,2*%
%TO.N,Net-(U1-DISCH)*%
X177250000Y-88500000D03*
%TD*%
%TO.P,R6,1*%
%TO.N,Net-(D4-Pad1)*%
X132900000Y-67000000D03*
%TO.P,R6,2*%
%TO.N,GND*%
X137100000Y-67000000D03*
%TD*%
D12*
%TO.P,D1,1*%
%TO.N,Net-(D1-Pad1)*%
X146919264Y-100879625D03*
%TO.P,D1,2*%
%TO.N,Net-(U2-OUT_0)*%
X149459264Y-100879625D03*
%TD*%
D14*
%TO.P,R8,1*%
%TO.N,Net-(D6-Pad1)*%
X157400000Y-68000000D03*
%TO.P,R8,2*%
%TO.N,GND*%
X161600000Y-68000000D03*
%TD*%
D15*
%TO.P,B3,1*%
%TO.N,Net-(B2-+3V)*%
X151541203Y-112648708D03*
%TO.P,B3,2*%
%TO.N,Net-(B3-Pad2)*%
X145191203Y-115188708D03*
%TD*%
D13*
%TO.P,R12,1*%
%TO.N,Net-(D10-Pad1)*%
X150100000Y-91500000D03*
%TO.P,R12,2*%
%TO.N,GND*%
X145900000Y-91500000D03*
%TD*%
D14*
%TO.P,R4,1*%
%TO.N,Net-(D2-Pad1)*%
X145900000Y-89500000D03*
%TO.P,R4,2*%
%TO.N,GND*%
X150100000Y-89500000D03*
%TD*%
D10*
%TO.P,D2,1*%
%TO.N,Net-(D2-Pad1)*%
X138443348Y-90673349D03*
%TO.P,D2,2*%
%TO.N,Net-(U2-OUT_1)*%
X135903348Y-90673349D03*
%TD*%
D16*
%TO.P,VR1,*%
%TO.N,*%
X135313950Y-77900000D03*
D17*
%TO.P,VR1,1,GND_1*%
%TO.N,GND*%
X154236051Y-80600000D03*
%TO.P,VR1,2,VOUT_2*%
%TO.N,+5V*%
X154223950Y-77900000D03*
%TO.P,VR1,3,VIN_3*%
%TO.N,Net-(VR1-VIN)*%
X154223950Y-75200000D03*
%TD*%
D10*
%TO.P,D7,1*%
%TO.N,Net-(D7-Pad1)*%
X161943348Y-55673349D03*
%TO.P,D7,2*%
%TO.N,Net-(U2-OUT_6)*%
X159403348Y-55673349D03*
%TD*%
D12*
%TO.P,D10,1*%
%TO.N,Net-(D10-Pad1)*%
X159403348Y-90673349D03*
%TO.P,D10,2*%
%TO.N,Net-(U2-OUT_9)*%
X161943348Y-90673349D03*
%TD*%
D10*
%TO.P,D6,1*%
%TO.N,Net-(D6-Pad1)*%
X148213348Y-65673349D03*
%TO.P,D6,2*%
%TO.N,Net-(U2-OUT_5)*%
X145673348Y-65673349D03*
%TD*%
D18*
%TO.P,U1,1,GND_1*%
%TO.N,GND*%
X170830000Y-99560000D03*
D19*
%TO.P,U1,2,TRIG_2*%
%TO.N,Net-(U1-THRES)*%
X173370000Y-99560000D03*
%TO.P,U1,3,OUT_3*%
%TO.N,/CLK*%
X175910000Y-99560000D03*
%TO.P,U1,4,RESET_4*%
%TO.N,+5V*%
X178450000Y-99560000D03*
%TO.P,U1,5,CONT_5*%
%TO.N,unconnected-(U1-CONT-Pad5)*%
X178450000Y-91940000D03*
%TO.P,U1,6,THRES_6*%
%TO.N,Net-(U1-THRES)*%
X175910000Y-91940000D03*
%TO.P,U1,7,DISCH_7*%
%TO.N,Net-(U1-DISCH)*%
X173370000Y-91940000D03*
%TO.P,U1,8,VCC_8*%
%TO.N,+5V*%
X170830000Y-91940000D03*
%TD*%
D12*
%TO.P,D9,1*%
%TO.N,Net-(D9-Pad1)*%
X169403348Y-80673349D03*
%TO.P,D9,2*%
%TO.N,Net-(U2-OUT_8)*%
X171943348Y-80673349D03*
%TD*%
D14*
%TO.P,C4,1*%
%TO.N,+5V*%
X157500000Y-79000000D03*
%TO.P,C4,2*%
%TO.N,GND*%
X162500000Y-79000000D03*
%TD*%
%TO.P,R7,1*%
%TO.N,Net-(D5-Pad1)*%
X132900000Y-65000000D03*
%TO.P,R7,2*%
%TO.N,GND*%
X137100000Y-65000000D03*
%TD*%
D10*
%TO.P,D3,1*%
%TO.N,Net-(D3-Pad1)*%
X126943348Y-80673349D03*
%TO.P,D3,2*%
%TO.N,Net-(U2-OUT_2)*%
X124403348Y-80673349D03*
%TD*%
D14*
%TO.P,R3,1*%
%TO.N,Net-(D1-Pad1)*%
X145900000Y-93500000D03*
%TO.P,R3,2*%
%TO.N,GND*%
X150100000Y-93500000D03*
%TD*%
D20*
%TO.P,B1,1,+3V_1*%
%TO.N,Net-(B1-+3V)*%
X130000000Y-128100000D03*
X130000000Y-105000000D03*
D21*
%TO.P,B1,2,GND_2*%
%TO.N,GND*%
X130000000Y-116550000D03*
%TD*%
D20*
%TO.P,B2,1,+3V_1*%
%TO.N,Net-(B2-+3V)*%
X170000000Y-128100000D03*
X170000000Y-105000000D03*
D21*
%TO.P,B2,2,GND_2*%
%TO.N,Net-(B1-+3V)*%
X170000000Y-116550000D03*
%TD*%
D22*
%TO.N,Net-(U1-THRES)*%
X173500000Y-94500000D03*
%TO.N,Net-(VR1-VIN)*%
X141000000Y-76000000D03*
%TO.N,Net-(U2-OUT_5)*%
X129500000Y-70000000D03*
%TO.N,Net-(U2-OUT_6)*%
X119000000Y-53500000D03*
%TO.N,Net-(U2-OUT_7)*%
X117000000Y-72000000D03*
%TO.N,Net-(U2-OUT_3)*%
X114500000Y-65500000D03*
%TO.N,GND*%
X130000000Y-111000000D03*
X167500000Y-93500000D03*
%TO.N,Net-(U2-OUT_8)*%
X164000000Y-114000000D03*
X112000000Y-122000000D03*
%TO.N,Net-(U2-OUT_4)*%
X113000000Y-57765000D03*
%TO.N,Net-(U2-OUT_9)*%
X160500000Y-108500000D03*
X116880000Y-108500000D03*
%TO.N,+5V*%
X132500000Y-84500000D03*
%TO.N,Net-(B2-+3V)*%
X168500000Y-111500000D03*
%TD*%
%TO.N,Net-(U1-THRES)*%
D23*
X173500000Y-94500000D02*
X173500000Y-97000000D01*
X173370000Y-97130000D02*
X173370000Y-99560000D01*
X173500000Y-97000000D02*
X173370000Y-97130000D01*
%TO.N,Net-(VR1-VIN)*%
X141000000Y-99195000D02*
X141000000Y-76000000D01*
%TO.N,Net-(B3-Pad2)*%
X145191203Y-115188708D02*
X145191203Y-109996203D01*
X145191203Y-109996203D02*
X141000000Y-105805000D01*
%TO.N,Net-(U2-OUT_5)*%
X129500000Y-70000000D02*
X129500000Y-71840000D01*
X129500000Y-71840000D02*
X129580000Y-71920000D01*
X129580000Y-71920000D02*
X129580000Y-90975000D01*
%TO.N,Net-(U2-OUT_2)*%
X122000000Y-90935000D02*
X121960000Y-90975000D01*
X123826651Y-80673349D02*
X122000000Y-82500000D01*
X122000000Y-82500000D02*
X122000000Y-90935000D01*
X124403348Y-80673349D02*
X123826651Y-80673349D01*
%TO.N,Net-(U2-OUT_6)*%
X119420000Y-72920000D02*
X119420000Y-90975000D01*
X119000000Y-72500000D02*
X119420000Y-72920000D01*
X119000000Y-53500000D02*
X119000000Y-72500000D01*
%TO.N,Net-(U2-OUT_7)*%
X116880000Y-72120000D02*
X116880000Y-90975000D01*
X117000000Y-72000000D02*
X116880000Y-72120000D01*
%TO.N,Net-(U2-OUT_3)*%
X114340000Y-73276697D02*
X114340000Y-90975000D01*
X114500000Y-73116697D02*
X114340000Y-73276697D01*
X114500000Y-65500000D02*
X114500000Y-73116697D01*
%TO.N,GND*%
X158465000Y-67065000D02*
X157400000Y-66000000D01*
X160665000Y-67065000D02*
X158465000Y-67065000D01*
X162500000Y-74500000D02*
X161600000Y-73600000D01*
X167500000Y-93500000D02*
X170830000Y-96830000D01*
X157400000Y-64000000D02*
X157400000Y-66000000D01*
X121960000Y-102960000D02*
X130000000Y-111000000D01*
X162500000Y-79000000D02*
X162500000Y-74500000D01*
X161600000Y-73600000D02*
X161600000Y-68000000D01*
X161600000Y-68000000D02*
X160665000Y-67065000D01*
X170830000Y-96830000D02*
X170830000Y-99560000D01*
X121960000Y-100500000D02*
X121960000Y-102960000D01*
X130000000Y-111000000D02*
X130000000Y-116550000D01*
%TO.N,Net-(U2-OUT_8)*%
X111800000Y-121800000D02*
X112000000Y-122000000D01*
X164000000Y-114000000D02*
X165000000Y-113000000D01*
X171943348Y-82056652D02*
X171943348Y-80673349D01*
X165000000Y-89000000D02*
X171943348Y-82056652D01*
X111800000Y-100500000D02*
X111800000Y-121800000D01*
X165000000Y-113000000D02*
X165000000Y-89000000D01*
%TO.N,Net-(U2-OUT_4)*%
X113000000Y-57765000D02*
X113000000Y-99160000D01*
X113000000Y-99160000D02*
X114340000Y-100500000D01*
%TO.N,Net-(U2-OUT_9)*%
X116880000Y-108500000D02*
X116880000Y-100500000D01*
X160500000Y-108500000D02*
X160500000Y-103000000D01*
X161943348Y-101556652D02*
X161943348Y-90673349D01*
X160500000Y-103000000D02*
X161943348Y-101556652D01*
%TO.N,+5V*%
X132500000Y-96000000D02*
X129580000Y-98920000D01*
X129580000Y-98920000D02*
X129580000Y-100500000D01*
X132500000Y-84500000D02*
X132500000Y-96000000D01*
%TO.N,Net-(D5-Pad1)*%
X132900000Y-65000000D02*
X132900000Y-55986697D01*
X132900000Y-55986697D02*
X133213348Y-55673349D01*
%TO.N,Net-(D7-Pad1)*%
X161600000Y-56016697D02*
X161943348Y-55673349D01*
X161600000Y-64000000D02*
X161600000Y-56016697D01*
%TO.N,Net-(D1-Pad1)*%
X146919264Y-94519264D02*
X145900000Y-93500000D01*
X146919264Y-100879625D02*
X146919264Y-94519264D01*
%TO.N,Net-(B2-+3V)*%
X175500000Y-122600000D02*
X170000000Y-128100000D01*
X175500000Y-110500000D02*
X175500000Y-122600000D01*
X168500000Y-106500000D02*
X168500000Y-111500000D01*
X170000000Y-105000000D02*
X175500000Y-110500000D01*
X170000000Y-105000000D02*
X168500000Y-106500000D01*
%TO.N,Net-(B1-+3V)*%
X130000000Y-105000000D02*
X130000000Y-105500000D01*
X136000000Y-128100000D02*
X161248529Y-128100000D01*
X170000000Y-119348529D02*
X170000000Y-116550000D01*
X130000000Y-105000000D02*
X136000000Y-111000000D01*
X136000000Y-111000000D02*
X136000000Y-128100000D01*
X161248529Y-128100000D02*
X170000000Y-119348529D01*
X130000000Y-128100000D02*
X136000000Y-128100000D01*
%TD*%
M02*
