%TF.GenerationSoftware,KiCad,Pcbnew,10.0.3*%
%TF.CreationDate,2026-06-19T10:01:34-04:00*%
%TF.ProjectId,blinking_heart_pcb_keychain,626c696e-6b69-46e6-975f-68656172745f,rev?*%
%TF.SameCoordinates,Original*%
%TF.FileFunction,Legend,Top*%
%TF.FilePolarity,Positive*%
%FSLAX46Y46*%
G04 Gerber Fmt 4.6, Leading zero omitted, Abs format (unit mm)*
G04 Created by KiCad (PCBNEW 10.0.3) date 2026-06-19 10:01:34*
%MOMM*%
%LPD*%
G01*
G04 APERTURE LIST*
%ADD10C,0.100000*%
%ADD11C,0.120000*%
G04 APERTURE END LIST*
D10*
X182042580Y-87333333D02*
X182518771Y-87000000D01*
X182042580Y-86761905D02*
X183042580Y-86761905D01*
X183042580Y-86761905D02*
X183042580Y-87142857D01*
X183042580Y-87142857D02*
X182994961Y-87238095D01*
X182994961Y-87238095D02*
X182947342Y-87285714D01*
X182947342Y-87285714D02*
X182852104Y-87333333D01*
X182852104Y-87333333D02*
X182709247Y-87333333D01*
X182709247Y-87333333D02*
X182614009Y-87285714D01*
X182614009Y-87285714D02*
X182566390Y-87238095D01*
X182566390Y-87238095D02*
X182518771Y-87142857D01*
X182518771Y-87142857D02*
X182518771Y-86761905D01*
X182947342Y-87714286D02*
X182994961Y-87761905D01*
X182994961Y-87761905D02*
X183042580Y-87857143D01*
X183042580Y-87857143D02*
X183042580Y-88095238D01*
X183042580Y-88095238D02*
X182994961Y-88190476D01*
X182994961Y-88190476D02*
X182947342Y-88238095D01*
X182947342Y-88238095D02*
X182852104Y-88285714D01*
X182852104Y-88285714D02*
X182756866Y-88285714D01*
X182756866Y-88285714D02*
X182614009Y-88238095D01*
X182614009Y-88238095D02*
X182042580Y-87666667D01*
X182042580Y-87666667D02*
X182042580Y-88285714D01*
X141042580Y-101285714D02*
X142042580Y-101285714D01*
X142042580Y-101285714D02*
X142042580Y-101523809D01*
X142042580Y-101523809D02*
X141994961Y-101666666D01*
X141994961Y-101666666D02*
X141899723Y-101761904D01*
X141899723Y-101761904D02*
X141804485Y-101809523D01*
X141804485Y-101809523D02*
X141614009Y-101857142D01*
X141614009Y-101857142D02*
X141471152Y-101857142D01*
X141471152Y-101857142D02*
X141280676Y-101809523D01*
X141280676Y-101809523D02*
X141185438Y-101761904D01*
X141185438Y-101761904D02*
X141090200Y-101666666D01*
X141090200Y-101666666D02*
X141042580Y-101523809D01*
X141042580Y-101523809D02*
X141042580Y-101285714D01*
X141042580Y-102809523D02*
X141042580Y-102238095D01*
X141042580Y-102523809D02*
X142042580Y-102523809D01*
X142042580Y-102523809D02*
X141899723Y-102428571D01*
X141899723Y-102428571D02*
X141804485Y-102333333D01*
X141804485Y-102333333D02*
X141756866Y-102238095D01*
X141042580Y-103761904D02*
X141042580Y-103190476D01*
X141042580Y-103476190D02*
X142042580Y-103476190D01*
X142042580Y-103476190D02*
X141899723Y-103380952D01*
X141899723Y-103380952D02*
X141804485Y-103285714D01*
X141804485Y-103285714D02*
X141756866Y-103190476D01*
X121451904Y-97867580D02*
X121451904Y-97058057D01*
X121451904Y-97058057D02*
X121404285Y-96962819D01*
X121404285Y-96962819D02*
X121356666Y-96915200D01*
X121356666Y-96915200D02*
X121261428Y-96867580D01*
X121261428Y-96867580D02*
X121070952Y-96867580D01*
X121070952Y-96867580D02*
X120975714Y-96915200D01*
X120975714Y-96915200D02*
X120928095Y-96962819D01*
X120928095Y-96962819D02*
X120880476Y-97058057D01*
X120880476Y-97058057D02*
X120880476Y-97867580D01*
X120451904Y-97772342D02*
X120404285Y-97819961D01*
X120404285Y-97819961D02*
X120309047Y-97867580D01*
X120309047Y-97867580D02*
X120070952Y-97867580D01*
X120070952Y-97867580D02*
X119975714Y-97819961D01*
X119975714Y-97819961D02*
X119928095Y-97772342D01*
X119928095Y-97772342D02*
X119880476Y-97677104D01*
X119880476Y-97677104D02*
X119880476Y-97581866D01*
X119880476Y-97581866D02*
X119928095Y-97439009D01*
X119928095Y-97439009D02*
X120499523Y-96867580D01*
X120499523Y-96867580D02*
X119880476Y-96867580D01*
X169935253Y-65630768D02*
X169935253Y-64630768D01*
X169935253Y-64630768D02*
X170173348Y-64630768D01*
X170173348Y-64630768D02*
X170316205Y-64678387D01*
X170316205Y-64678387D02*
X170411443Y-64773625D01*
X170411443Y-64773625D02*
X170459062Y-64868863D01*
X170459062Y-64868863D02*
X170506681Y-65059339D01*
X170506681Y-65059339D02*
X170506681Y-65202196D01*
X170506681Y-65202196D02*
X170459062Y-65392672D01*
X170459062Y-65392672D02*
X170411443Y-65487910D01*
X170411443Y-65487910D02*
X170316205Y-65583149D01*
X170316205Y-65583149D02*
X170173348Y-65630768D01*
X170173348Y-65630768D02*
X169935253Y-65630768D01*
X171078110Y-65059339D02*
X170982872Y-65011720D01*
X170982872Y-65011720D02*
X170935253Y-64964101D01*
X170935253Y-64964101D02*
X170887634Y-64868863D01*
X170887634Y-64868863D02*
X170887634Y-64821244D01*
X170887634Y-64821244D02*
X170935253Y-64726006D01*
X170935253Y-64726006D02*
X170982872Y-64678387D01*
X170982872Y-64678387D02*
X171078110Y-64630768D01*
X171078110Y-64630768D02*
X171268586Y-64630768D01*
X171268586Y-64630768D02*
X171363824Y-64678387D01*
X171363824Y-64678387D02*
X171411443Y-64726006D01*
X171411443Y-64726006D02*
X171459062Y-64821244D01*
X171459062Y-64821244D02*
X171459062Y-64868863D01*
X171459062Y-64868863D02*
X171411443Y-64964101D01*
X171411443Y-64964101D02*
X171363824Y-65011720D01*
X171363824Y-65011720D02*
X171268586Y-65059339D01*
X171268586Y-65059339D02*
X171078110Y-65059339D01*
X171078110Y-65059339D02*
X170982872Y-65106958D01*
X170982872Y-65106958D02*
X170935253Y-65154577D01*
X170935253Y-65154577D02*
X170887634Y-65249815D01*
X170887634Y-65249815D02*
X170887634Y-65440291D01*
X170887634Y-65440291D02*
X170935253Y-65535529D01*
X170935253Y-65535529D02*
X170982872Y-65583149D01*
X170982872Y-65583149D02*
X171078110Y-65630768D01*
X171078110Y-65630768D02*
X171268586Y-65630768D01*
X171268586Y-65630768D02*
X171363824Y-65583149D01*
X171363824Y-65583149D02*
X171411443Y-65535529D01*
X171411443Y-65535529D02*
X171459062Y-65440291D01*
X171459062Y-65440291D02*
X171459062Y-65249815D01*
X171459062Y-65249815D02*
X171411443Y-65154577D01*
X171411443Y-65154577D02*
X171363824Y-65106958D01*
X171363824Y-65106958D02*
X171268586Y-65059339D01*
X132681442Y-55715929D02*
X132681442Y-56715929D01*
X132681442Y-56715929D02*
X132443347Y-56715929D01*
X132443347Y-56715929D02*
X132300490Y-56668310D01*
X132300490Y-56668310D02*
X132205252Y-56573072D01*
X132205252Y-56573072D02*
X132157633Y-56477834D01*
X132157633Y-56477834D02*
X132110014Y-56287358D01*
X132110014Y-56287358D02*
X132110014Y-56144501D01*
X132110014Y-56144501D02*
X132157633Y-55954025D01*
X132157633Y-55954025D02*
X132205252Y-55858787D01*
X132205252Y-55858787D02*
X132300490Y-55763549D01*
X132300490Y-55763549D02*
X132443347Y-55715929D01*
X132443347Y-55715929D02*
X132681442Y-55715929D01*
X131205252Y-56715929D02*
X131681442Y-56715929D01*
X131681442Y-56715929D02*
X131729061Y-56239739D01*
X131729061Y-56239739D02*
X131681442Y-56287358D01*
X131681442Y-56287358D02*
X131586204Y-56334977D01*
X131586204Y-56334977D02*
X131348109Y-56334977D01*
X131348109Y-56334977D02*
X131252871Y-56287358D01*
X131252871Y-56287358D02*
X131205252Y-56239739D01*
X131205252Y-56239739D02*
X131157633Y-56144501D01*
X131157633Y-56144501D02*
X131157633Y-55906406D01*
X131157633Y-55906406D02*
X131205252Y-55811168D01*
X131205252Y-55811168D02*
X131252871Y-55763549D01*
X131252871Y-55763549D02*
X131348109Y-55715929D01*
X131348109Y-55715929D02*
X131586204Y-55715929D01*
X131586204Y-55715929D02*
X131681442Y-55763549D01*
X131681442Y-55763549D02*
X131729061Y-55811168D01*
X152357142Y-85957419D02*
X152023809Y-85481228D01*
X151785714Y-85957419D02*
X151785714Y-84957419D01*
X151785714Y-84957419D02*
X152166666Y-84957419D01*
X152166666Y-84957419D02*
X152261904Y-85005038D01*
X152261904Y-85005038D02*
X152309523Y-85052657D01*
X152309523Y-85052657D02*
X152357142Y-85147895D01*
X152357142Y-85147895D02*
X152357142Y-85290752D01*
X152357142Y-85290752D02*
X152309523Y-85385990D01*
X152309523Y-85385990D02*
X152261904Y-85433609D01*
X152261904Y-85433609D02*
X152166666Y-85481228D01*
X152166666Y-85481228D02*
X151785714Y-85481228D01*
X153309523Y-85957419D02*
X152738095Y-85957419D01*
X153023809Y-85957419D02*
X153023809Y-84957419D01*
X153023809Y-84957419D02*
X152928571Y-85100276D01*
X152928571Y-85100276D02*
X152833333Y-85195514D01*
X152833333Y-85195514D02*
X152738095Y-85243133D01*
X154261904Y-85957419D02*
X153690476Y-85957419D01*
X153976190Y-85957419D02*
X153976190Y-84957419D01*
X153976190Y-84957419D02*
X153880952Y-85100276D01*
X153880952Y-85100276D02*
X153785714Y-85195514D01*
X153785714Y-85195514D02*
X153690476Y-85243133D01*
X123951442Y-65715929D02*
X123951442Y-66715929D01*
X123951442Y-66715929D02*
X123713347Y-66715929D01*
X123713347Y-66715929D02*
X123570490Y-66668310D01*
X123570490Y-66668310D02*
X123475252Y-66573072D01*
X123475252Y-66573072D02*
X123427633Y-66477834D01*
X123427633Y-66477834D02*
X123380014Y-66287358D01*
X123380014Y-66287358D02*
X123380014Y-66144501D01*
X123380014Y-66144501D02*
X123427633Y-65954025D01*
X123427633Y-65954025D02*
X123475252Y-65858787D01*
X123475252Y-65858787D02*
X123570490Y-65763549D01*
X123570490Y-65763549D02*
X123713347Y-65715929D01*
X123713347Y-65715929D02*
X123951442Y-65715929D01*
X122522871Y-66382596D02*
X122522871Y-65715929D01*
X122760966Y-66763549D02*
X122999061Y-66049263D01*
X122999061Y-66049263D02*
X122380014Y-66049263D01*
X152333333Y-87957419D02*
X152000000Y-87481228D01*
X151761905Y-87957419D02*
X151761905Y-86957419D01*
X151761905Y-86957419D02*
X152142857Y-86957419D01*
X152142857Y-86957419D02*
X152238095Y-87005038D01*
X152238095Y-87005038D02*
X152285714Y-87052657D01*
X152285714Y-87052657D02*
X152333333Y-87147895D01*
X152333333Y-87147895D02*
X152333333Y-87290752D01*
X152333333Y-87290752D02*
X152285714Y-87385990D01*
X152285714Y-87385990D02*
X152238095Y-87433609D01*
X152238095Y-87433609D02*
X152142857Y-87481228D01*
X152142857Y-87481228D02*
X151761905Y-87481228D01*
X153238095Y-86957419D02*
X152761905Y-86957419D01*
X152761905Y-86957419D02*
X152714286Y-87433609D01*
X152714286Y-87433609D02*
X152761905Y-87385990D01*
X152761905Y-87385990D02*
X152857143Y-87338371D01*
X152857143Y-87338371D02*
X153095238Y-87338371D01*
X153095238Y-87338371D02*
X153190476Y-87385990D01*
X153190476Y-87385990D02*
X153238095Y-87433609D01*
X153238095Y-87433609D02*
X153285714Y-87528847D01*
X153285714Y-87528847D02*
X153285714Y-87766942D01*
X153285714Y-87766942D02*
X153238095Y-87862180D01*
X153238095Y-87862180D02*
X153190476Y-87909800D01*
X153190476Y-87909800D02*
X153095238Y-87957419D01*
X153095238Y-87957419D02*
X152857143Y-87957419D01*
X152857143Y-87957419D02*
X152761905Y-87909800D01*
X152761905Y-87909800D02*
X152714286Y-87862180D01*
X163833333Y-64457419D02*
X163500000Y-63981228D01*
X163261905Y-64457419D02*
X163261905Y-63457419D01*
X163261905Y-63457419D02*
X163642857Y-63457419D01*
X163642857Y-63457419D02*
X163738095Y-63505038D01*
X163738095Y-63505038D02*
X163785714Y-63552657D01*
X163785714Y-63552657D02*
X163833333Y-63647895D01*
X163833333Y-63647895D02*
X163833333Y-63790752D01*
X163833333Y-63790752D02*
X163785714Y-63885990D01*
X163785714Y-63885990D02*
X163738095Y-63933609D01*
X163738095Y-63933609D02*
X163642857Y-63981228D01*
X163642857Y-63981228D02*
X163261905Y-63981228D01*
X164309524Y-64457419D02*
X164500000Y-64457419D01*
X164500000Y-64457419D02*
X164595238Y-64409800D01*
X164595238Y-64409800D02*
X164642857Y-64362180D01*
X164642857Y-64362180D02*
X164738095Y-64219323D01*
X164738095Y-64219323D02*
X164785714Y-64028847D01*
X164785714Y-64028847D02*
X164785714Y-63647895D01*
X164785714Y-63647895D02*
X164738095Y-63552657D01*
X164738095Y-63552657D02*
X164690476Y-63505038D01*
X164690476Y-63505038D02*
X164595238Y-63457419D01*
X164595238Y-63457419D02*
X164404762Y-63457419D01*
X164404762Y-63457419D02*
X164309524Y-63505038D01*
X164309524Y-63505038D02*
X164261905Y-63552657D01*
X164261905Y-63552657D02*
X164214286Y-63647895D01*
X164214286Y-63647895D02*
X164214286Y-63885990D01*
X164214286Y-63885990D02*
X164261905Y-63981228D01*
X164261905Y-63981228D02*
X164309524Y-64028847D01*
X164309524Y-64028847D02*
X164404762Y-64076466D01*
X164404762Y-64076466D02*
X164595238Y-64076466D01*
X164595238Y-64076466D02*
X164690476Y-64028847D01*
X164690476Y-64028847D02*
X164738095Y-63981228D01*
X164738095Y-63981228D02*
X164785714Y-63885990D01*
X163857142Y-66457419D02*
X163523809Y-65981228D01*
X163285714Y-66457419D02*
X163285714Y-65457419D01*
X163285714Y-65457419D02*
X163666666Y-65457419D01*
X163666666Y-65457419D02*
X163761904Y-65505038D01*
X163761904Y-65505038D02*
X163809523Y-65552657D01*
X163809523Y-65552657D02*
X163857142Y-65647895D01*
X163857142Y-65647895D02*
X163857142Y-65790752D01*
X163857142Y-65790752D02*
X163809523Y-65885990D01*
X163809523Y-65885990D02*
X163761904Y-65933609D01*
X163761904Y-65933609D02*
X163666666Y-65981228D01*
X163666666Y-65981228D02*
X163285714Y-65981228D01*
X164809523Y-66457419D02*
X164238095Y-66457419D01*
X164523809Y-66457419D02*
X164523809Y-65457419D01*
X164523809Y-65457419D02*
X164428571Y-65600276D01*
X164428571Y-65600276D02*
X164333333Y-65695514D01*
X164333333Y-65695514D02*
X164238095Y-65743133D01*
X165428571Y-65457419D02*
X165523809Y-65457419D01*
X165523809Y-65457419D02*
X165619047Y-65505038D01*
X165619047Y-65505038D02*
X165666666Y-65552657D01*
X165666666Y-65552657D02*
X165714285Y-65647895D01*
X165714285Y-65647895D02*
X165761904Y-65838371D01*
X165761904Y-65838371D02*
X165761904Y-66076466D01*
X165761904Y-66076466D02*
X165714285Y-66266942D01*
X165714285Y-66266942D02*
X165666666Y-66362180D01*
X165666666Y-66362180D02*
X165619047Y-66409800D01*
X165619047Y-66409800D02*
X165523809Y-66457419D01*
X165523809Y-66457419D02*
X165428571Y-66457419D01*
X165428571Y-66457419D02*
X165333333Y-66409800D01*
X165333333Y-66409800D02*
X165285714Y-66362180D01*
X165285714Y-66362180D02*
X165238095Y-66266942D01*
X165238095Y-66266942D02*
X165190476Y-66076466D01*
X165190476Y-66076466D02*
X165190476Y-65838371D01*
X165190476Y-65838371D02*
X165238095Y-65647895D01*
X165238095Y-65647895D02*
X165285714Y-65552657D01*
X165285714Y-65552657D02*
X165333333Y-65505038D01*
X165333333Y-65505038D02*
X165428571Y-65457419D01*
X159833333Y-74362180D02*
X159785714Y-74409800D01*
X159785714Y-74409800D02*
X159642857Y-74457419D01*
X159642857Y-74457419D02*
X159547619Y-74457419D01*
X159547619Y-74457419D02*
X159404762Y-74409800D01*
X159404762Y-74409800D02*
X159309524Y-74314561D01*
X159309524Y-74314561D02*
X159261905Y-74219323D01*
X159261905Y-74219323D02*
X159214286Y-74028847D01*
X159214286Y-74028847D02*
X159214286Y-73885990D01*
X159214286Y-73885990D02*
X159261905Y-73695514D01*
X159261905Y-73695514D02*
X159309524Y-73600276D01*
X159309524Y-73600276D02*
X159404762Y-73505038D01*
X159404762Y-73505038D02*
X159547619Y-73457419D01*
X159547619Y-73457419D02*
X159642857Y-73457419D01*
X159642857Y-73457419D02*
X159785714Y-73505038D01*
X159785714Y-73505038D02*
X159833333Y-73552657D01*
X160166667Y-73457419D02*
X160785714Y-73457419D01*
X160785714Y-73457419D02*
X160452381Y-73838371D01*
X160452381Y-73838371D02*
X160595238Y-73838371D01*
X160595238Y-73838371D02*
X160690476Y-73885990D01*
X160690476Y-73885990D02*
X160738095Y-73933609D01*
X160738095Y-73933609D02*
X160785714Y-74028847D01*
X160785714Y-74028847D02*
X160785714Y-74266942D01*
X160785714Y-74266942D02*
X160738095Y-74362180D01*
X160738095Y-74362180D02*
X160690476Y-74409800D01*
X160690476Y-74409800D02*
X160595238Y-74457419D01*
X160595238Y-74457419D02*
X160309524Y-74457419D01*
X160309524Y-74457419D02*
X160214286Y-74409800D01*
X160214286Y-74409800D02*
X160166667Y-74362180D01*
X182637819Y-95833333D02*
X182590200Y-95785714D01*
X182590200Y-95785714D02*
X182542580Y-95642857D01*
X182542580Y-95642857D02*
X182542580Y-95547619D01*
X182542580Y-95547619D02*
X182590200Y-95404762D01*
X182590200Y-95404762D02*
X182685438Y-95309524D01*
X182685438Y-95309524D02*
X182780676Y-95261905D01*
X182780676Y-95261905D02*
X182971152Y-95214286D01*
X182971152Y-95214286D02*
X183114009Y-95214286D01*
X183114009Y-95214286D02*
X183304485Y-95261905D01*
X183304485Y-95261905D02*
X183399723Y-95309524D01*
X183399723Y-95309524D02*
X183494961Y-95404762D01*
X183494961Y-95404762D02*
X183542580Y-95547619D01*
X183542580Y-95547619D02*
X183542580Y-95642857D01*
X183542580Y-95642857D02*
X183494961Y-95785714D01*
X183494961Y-95785714D02*
X183447342Y-95833333D01*
X182542580Y-96785714D02*
X182542580Y-96214286D01*
X182542580Y-96500000D02*
X183542580Y-96500000D01*
X183542580Y-96500000D02*
X183399723Y-96404762D01*
X183399723Y-96404762D02*
X183304485Y-96309524D01*
X183304485Y-96309524D02*
X183256866Y-96214286D01*
X174833333Y-105362180D02*
X174785714Y-105409800D01*
X174785714Y-105409800D02*
X174642857Y-105457419D01*
X174642857Y-105457419D02*
X174547619Y-105457419D01*
X174547619Y-105457419D02*
X174404762Y-105409800D01*
X174404762Y-105409800D02*
X174309524Y-105314561D01*
X174309524Y-105314561D02*
X174261905Y-105219323D01*
X174261905Y-105219323D02*
X174214286Y-105028847D01*
X174214286Y-105028847D02*
X174214286Y-104885990D01*
X174214286Y-104885990D02*
X174261905Y-104695514D01*
X174261905Y-104695514D02*
X174309524Y-104600276D01*
X174309524Y-104600276D02*
X174404762Y-104505038D01*
X174404762Y-104505038D02*
X174547619Y-104457419D01*
X174547619Y-104457419D02*
X174642857Y-104457419D01*
X174642857Y-104457419D02*
X174785714Y-104505038D01*
X174785714Y-104505038D02*
X174833333Y-104552657D01*
X175214286Y-104552657D02*
X175261905Y-104505038D01*
X175261905Y-104505038D02*
X175357143Y-104457419D01*
X175357143Y-104457419D02*
X175595238Y-104457419D01*
X175595238Y-104457419D02*
X175690476Y-104505038D01*
X175690476Y-104505038D02*
X175738095Y-104552657D01*
X175738095Y-104552657D02*
X175785714Y-104647895D01*
X175785714Y-104647895D02*
X175785714Y-104743133D01*
X175785714Y-104743133D02*
X175738095Y-104885990D01*
X175738095Y-104885990D02*
X175166667Y-105457419D01*
X175166667Y-105457419D02*
X175785714Y-105457419D01*
X174333333Y-88957419D02*
X174000000Y-88481228D01*
X173761905Y-88957419D02*
X173761905Y-87957419D01*
X173761905Y-87957419D02*
X174142857Y-87957419D01*
X174142857Y-87957419D02*
X174238095Y-88005038D01*
X174238095Y-88005038D02*
X174285714Y-88052657D01*
X174285714Y-88052657D02*
X174333333Y-88147895D01*
X174333333Y-88147895D02*
X174333333Y-88290752D01*
X174333333Y-88290752D02*
X174285714Y-88385990D01*
X174285714Y-88385990D02*
X174238095Y-88433609D01*
X174238095Y-88433609D02*
X174142857Y-88481228D01*
X174142857Y-88481228D02*
X173761905Y-88481228D01*
X175285714Y-88957419D02*
X174714286Y-88957419D01*
X175000000Y-88957419D02*
X175000000Y-87957419D01*
X175000000Y-87957419D02*
X174904762Y-88100276D01*
X174904762Y-88100276D02*
X174809524Y-88195514D01*
X174809524Y-88195514D02*
X174714286Y-88243133D01*
X139333333Y-67457419D02*
X139000000Y-66981228D01*
X138761905Y-67457419D02*
X138761905Y-66457419D01*
X138761905Y-66457419D02*
X139142857Y-66457419D01*
X139142857Y-66457419D02*
X139238095Y-66505038D01*
X139238095Y-66505038D02*
X139285714Y-66552657D01*
X139285714Y-66552657D02*
X139333333Y-66647895D01*
X139333333Y-66647895D02*
X139333333Y-66790752D01*
X139333333Y-66790752D02*
X139285714Y-66885990D01*
X139285714Y-66885990D02*
X139238095Y-66933609D01*
X139238095Y-66933609D02*
X139142857Y-66981228D01*
X139142857Y-66981228D02*
X138761905Y-66981228D01*
X140190476Y-66457419D02*
X140000000Y-66457419D01*
X140000000Y-66457419D02*
X139904762Y-66505038D01*
X139904762Y-66505038D02*
X139857143Y-66552657D01*
X139857143Y-66552657D02*
X139761905Y-66695514D01*
X139761905Y-66695514D02*
X139714286Y-66885990D01*
X139714286Y-66885990D02*
X139714286Y-67266942D01*
X139714286Y-67266942D02*
X139761905Y-67362180D01*
X139761905Y-67362180D02*
X139809524Y-67409800D01*
X139809524Y-67409800D02*
X139904762Y-67457419D01*
X139904762Y-67457419D02*
X140095238Y-67457419D01*
X140095238Y-67457419D02*
X140190476Y-67409800D01*
X140190476Y-67409800D02*
X140238095Y-67362180D01*
X140238095Y-67362180D02*
X140285714Y-67266942D01*
X140285714Y-67266942D02*
X140285714Y-67028847D01*
X140285714Y-67028847D02*
X140238095Y-66933609D01*
X140238095Y-66933609D02*
X140190476Y-66885990D01*
X140190476Y-66885990D02*
X140095238Y-66838371D01*
X140095238Y-66838371D02*
X139904762Y-66838371D01*
X139904762Y-66838371D02*
X139809524Y-66885990D01*
X139809524Y-66885990D02*
X139761905Y-66933609D01*
X139761905Y-66933609D02*
X139714286Y-67028847D01*
X147451169Y-100837044D02*
X147451169Y-99837044D01*
X147451169Y-99837044D02*
X147689264Y-99837044D01*
X147689264Y-99837044D02*
X147832121Y-99884663D01*
X147832121Y-99884663D02*
X147927359Y-99979901D01*
X147927359Y-99979901D02*
X147974978Y-100075139D01*
X147974978Y-100075139D02*
X148022597Y-100265615D01*
X148022597Y-100265615D02*
X148022597Y-100408472D01*
X148022597Y-100408472D02*
X147974978Y-100598948D01*
X147974978Y-100598948D02*
X147927359Y-100694186D01*
X147927359Y-100694186D02*
X147832121Y-100789425D01*
X147832121Y-100789425D02*
X147689264Y-100837044D01*
X147689264Y-100837044D02*
X147451169Y-100837044D01*
X148974978Y-100837044D02*
X148403550Y-100837044D01*
X148689264Y-100837044D02*
X148689264Y-99837044D01*
X148689264Y-99837044D02*
X148594026Y-99979901D01*
X148594026Y-99979901D02*
X148498788Y-100075139D01*
X148498788Y-100075139D02*
X148403550Y-100122758D01*
X163833333Y-68457419D02*
X163500000Y-67981228D01*
X163261905Y-68457419D02*
X163261905Y-67457419D01*
X163261905Y-67457419D02*
X163642857Y-67457419D01*
X163642857Y-67457419D02*
X163738095Y-67505038D01*
X163738095Y-67505038D02*
X163785714Y-67552657D01*
X163785714Y-67552657D02*
X163833333Y-67647895D01*
X163833333Y-67647895D02*
X163833333Y-67790752D01*
X163833333Y-67790752D02*
X163785714Y-67885990D01*
X163785714Y-67885990D02*
X163738095Y-67933609D01*
X163738095Y-67933609D02*
X163642857Y-67981228D01*
X163642857Y-67981228D02*
X163261905Y-67981228D01*
X164404762Y-67885990D02*
X164309524Y-67838371D01*
X164309524Y-67838371D02*
X164261905Y-67790752D01*
X164261905Y-67790752D02*
X164214286Y-67695514D01*
X164214286Y-67695514D02*
X164214286Y-67647895D01*
X164214286Y-67647895D02*
X164261905Y-67552657D01*
X164261905Y-67552657D02*
X164309524Y-67505038D01*
X164309524Y-67505038D02*
X164404762Y-67457419D01*
X164404762Y-67457419D02*
X164595238Y-67457419D01*
X164595238Y-67457419D02*
X164690476Y-67505038D01*
X164690476Y-67505038D02*
X164738095Y-67552657D01*
X164738095Y-67552657D02*
X164785714Y-67647895D01*
X164785714Y-67647895D02*
X164785714Y-67695514D01*
X164785714Y-67695514D02*
X164738095Y-67790752D01*
X164738095Y-67790752D02*
X164690476Y-67838371D01*
X164690476Y-67838371D02*
X164595238Y-67885990D01*
X164595238Y-67885990D02*
X164404762Y-67885990D01*
X164404762Y-67885990D02*
X164309524Y-67933609D01*
X164309524Y-67933609D02*
X164261905Y-67981228D01*
X164261905Y-67981228D02*
X164214286Y-68076466D01*
X164214286Y-68076466D02*
X164214286Y-68266942D01*
X164214286Y-68266942D02*
X164261905Y-68362180D01*
X164261905Y-68362180D02*
X164309524Y-68409800D01*
X164309524Y-68409800D02*
X164404762Y-68457419D01*
X164404762Y-68457419D02*
X164595238Y-68457419D01*
X164595238Y-68457419D02*
X164690476Y-68409800D01*
X164690476Y-68409800D02*
X164738095Y-68362180D01*
X164738095Y-68362180D02*
X164785714Y-68266942D01*
X164785714Y-68266942D02*
X164785714Y-68076466D01*
X164785714Y-68076466D02*
X164738095Y-67981228D01*
X164738095Y-67981228D02*
X164690476Y-67933609D01*
X164690476Y-67933609D02*
X164595238Y-67885990D01*
X149571441Y-116637317D02*
X149714298Y-116684936D01*
X149714298Y-116684936D02*
X149761917Y-116732555D01*
X149761917Y-116732555D02*
X149809536Y-116827793D01*
X149809536Y-116827793D02*
X149809536Y-116970650D01*
X149809536Y-116970650D02*
X149761917Y-117065888D01*
X149761917Y-117065888D02*
X149714298Y-117113508D01*
X149714298Y-117113508D02*
X149619060Y-117161127D01*
X149619060Y-117161127D02*
X149238108Y-117161127D01*
X149238108Y-117161127D02*
X149238108Y-116161127D01*
X149238108Y-116161127D02*
X149571441Y-116161127D01*
X149571441Y-116161127D02*
X149666679Y-116208746D01*
X149666679Y-116208746D02*
X149714298Y-116256365D01*
X149714298Y-116256365D02*
X149761917Y-116351603D01*
X149761917Y-116351603D02*
X149761917Y-116446841D01*
X149761917Y-116446841D02*
X149714298Y-116542079D01*
X149714298Y-116542079D02*
X149666679Y-116589698D01*
X149666679Y-116589698D02*
X149571441Y-116637317D01*
X149571441Y-116637317D02*
X149238108Y-116637317D01*
X150142870Y-116161127D02*
X150761917Y-116161127D01*
X150761917Y-116161127D02*
X150428584Y-116542079D01*
X150428584Y-116542079D02*
X150571441Y-116542079D01*
X150571441Y-116542079D02*
X150666679Y-116589698D01*
X150666679Y-116589698D02*
X150714298Y-116637317D01*
X150714298Y-116637317D02*
X150761917Y-116732555D01*
X150761917Y-116732555D02*
X150761917Y-116970650D01*
X150761917Y-116970650D02*
X150714298Y-117065888D01*
X150714298Y-117065888D02*
X150666679Y-117113508D01*
X150666679Y-117113508D02*
X150571441Y-117161127D01*
X150571441Y-117161127D02*
X150285727Y-117161127D01*
X150285727Y-117161127D02*
X150190489Y-117113508D01*
X150190489Y-117113508D02*
X150142870Y-117065888D01*
X152357142Y-91957419D02*
X152023809Y-91481228D01*
X151785714Y-91957419D02*
X151785714Y-90957419D01*
X151785714Y-90957419D02*
X152166666Y-90957419D01*
X152166666Y-90957419D02*
X152261904Y-91005038D01*
X152261904Y-91005038D02*
X152309523Y-91052657D01*
X152309523Y-91052657D02*
X152357142Y-91147895D01*
X152357142Y-91147895D02*
X152357142Y-91290752D01*
X152357142Y-91290752D02*
X152309523Y-91385990D01*
X152309523Y-91385990D02*
X152261904Y-91433609D01*
X152261904Y-91433609D02*
X152166666Y-91481228D01*
X152166666Y-91481228D02*
X151785714Y-91481228D01*
X153309523Y-91957419D02*
X152738095Y-91957419D01*
X153023809Y-91957419D02*
X153023809Y-90957419D01*
X153023809Y-90957419D02*
X152928571Y-91100276D01*
X152928571Y-91100276D02*
X152833333Y-91195514D01*
X152833333Y-91195514D02*
X152738095Y-91243133D01*
X153690476Y-91052657D02*
X153738095Y-91005038D01*
X153738095Y-91005038D02*
X153833333Y-90957419D01*
X153833333Y-90957419D02*
X154071428Y-90957419D01*
X154071428Y-90957419D02*
X154166666Y-91005038D01*
X154166666Y-91005038D02*
X154214285Y-91052657D01*
X154214285Y-91052657D02*
X154261904Y-91147895D01*
X154261904Y-91147895D02*
X154261904Y-91243133D01*
X154261904Y-91243133D02*
X154214285Y-91385990D01*
X154214285Y-91385990D02*
X153642857Y-91957419D01*
X153642857Y-91957419D02*
X154261904Y-91957419D01*
X152333333Y-89957419D02*
X152000000Y-89481228D01*
X151761905Y-89957419D02*
X151761905Y-88957419D01*
X151761905Y-88957419D02*
X152142857Y-88957419D01*
X152142857Y-88957419D02*
X152238095Y-89005038D01*
X152238095Y-89005038D02*
X152285714Y-89052657D01*
X152285714Y-89052657D02*
X152333333Y-89147895D01*
X152333333Y-89147895D02*
X152333333Y-89290752D01*
X152333333Y-89290752D02*
X152285714Y-89385990D01*
X152285714Y-89385990D02*
X152238095Y-89433609D01*
X152238095Y-89433609D02*
X152142857Y-89481228D01*
X152142857Y-89481228D02*
X151761905Y-89481228D01*
X153190476Y-89290752D02*
X153190476Y-89957419D01*
X152952381Y-88909800D02*
X152714286Y-89624085D01*
X152714286Y-89624085D02*
X153333333Y-89624085D01*
X137911442Y-90715929D02*
X137911442Y-91715929D01*
X137911442Y-91715929D02*
X137673347Y-91715929D01*
X137673347Y-91715929D02*
X137530490Y-91668310D01*
X137530490Y-91668310D02*
X137435252Y-91573072D01*
X137435252Y-91573072D02*
X137387633Y-91477834D01*
X137387633Y-91477834D02*
X137340014Y-91287358D01*
X137340014Y-91287358D02*
X137340014Y-91144501D01*
X137340014Y-91144501D02*
X137387633Y-90954025D01*
X137387633Y-90954025D02*
X137435252Y-90858787D01*
X137435252Y-90858787D02*
X137530490Y-90763549D01*
X137530490Y-90763549D02*
X137673347Y-90715929D01*
X137673347Y-90715929D02*
X137911442Y-90715929D01*
X136959061Y-91620691D02*
X136911442Y-91668310D01*
X136911442Y-91668310D02*
X136816204Y-91715929D01*
X136816204Y-91715929D02*
X136578109Y-91715929D01*
X136578109Y-91715929D02*
X136482871Y-91668310D01*
X136482871Y-91668310D02*
X136435252Y-91620691D01*
X136435252Y-91620691D02*
X136387633Y-91525453D01*
X136387633Y-91525453D02*
X136387633Y-91430215D01*
X136387633Y-91430215D02*
X136435252Y-91287358D01*
X136435252Y-91287358D02*
X137006680Y-90715929D01*
X137006680Y-90715929D02*
X136387633Y-90715929D01*
X137946369Y-79209523D02*
X138946369Y-78876190D01*
X138946369Y-78876190D02*
X137946369Y-78542857D01*
X138946369Y-77638095D02*
X138470178Y-77971428D01*
X138946369Y-78209523D02*
X137946369Y-78209523D01*
X137946369Y-78209523D02*
X137946369Y-77828571D01*
X137946369Y-77828571D02*
X137993988Y-77733333D01*
X137993988Y-77733333D02*
X138041607Y-77685714D01*
X138041607Y-77685714D02*
X138136845Y-77638095D01*
X138136845Y-77638095D02*
X138279702Y-77638095D01*
X138279702Y-77638095D02*
X138374940Y-77685714D01*
X138374940Y-77685714D02*
X138422559Y-77733333D01*
X138422559Y-77733333D02*
X138470178Y-77828571D01*
X138470178Y-77828571D02*
X138470178Y-78209523D01*
X138946369Y-76685714D02*
X138946369Y-77257142D01*
X138946369Y-76971428D02*
X137946369Y-76971428D01*
X137946369Y-76971428D02*
X138089226Y-77066666D01*
X138089226Y-77066666D02*
X138184464Y-77161904D01*
X138184464Y-77161904D02*
X138232083Y-77257142D01*
X161411442Y-55715929D02*
X161411442Y-56715929D01*
X161411442Y-56715929D02*
X161173347Y-56715929D01*
X161173347Y-56715929D02*
X161030490Y-56668310D01*
X161030490Y-56668310D02*
X160935252Y-56573072D01*
X160935252Y-56573072D02*
X160887633Y-56477834D01*
X160887633Y-56477834D02*
X160840014Y-56287358D01*
X160840014Y-56287358D02*
X160840014Y-56144501D01*
X160840014Y-56144501D02*
X160887633Y-55954025D01*
X160887633Y-55954025D02*
X160935252Y-55858787D01*
X160935252Y-55858787D02*
X161030490Y-55763549D01*
X161030490Y-55763549D02*
X161173347Y-55715929D01*
X161173347Y-55715929D02*
X161411442Y-55715929D01*
X160506680Y-56715929D02*
X159840014Y-56715929D01*
X159840014Y-56715929D02*
X160268585Y-55715929D01*
X159459062Y-90630768D02*
X159459062Y-89630768D01*
X159459062Y-89630768D02*
X159697157Y-89630768D01*
X159697157Y-89630768D02*
X159840014Y-89678387D01*
X159840014Y-89678387D02*
X159935252Y-89773625D01*
X159935252Y-89773625D02*
X159982871Y-89868863D01*
X159982871Y-89868863D02*
X160030490Y-90059339D01*
X160030490Y-90059339D02*
X160030490Y-90202196D01*
X160030490Y-90202196D02*
X159982871Y-90392672D01*
X159982871Y-90392672D02*
X159935252Y-90487910D01*
X159935252Y-90487910D02*
X159840014Y-90583149D01*
X159840014Y-90583149D02*
X159697157Y-90630768D01*
X159697157Y-90630768D02*
X159459062Y-90630768D01*
X160982871Y-90630768D02*
X160411443Y-90630768D01*
X160697157Y-90630768D02*
X160697157Y-89630768D01*
X160697157Y-89630768D02*
X160601919Y-89773625D01*
X160601919Y-89773625D02*
X160506681Y-89868863D01*
X160506681Y-89868863D02*
X160411443Y-89916482D01*
X161601919Y-89630768D02*
X161697157Y-89630768D01*
X161697157Y-89630768D02*
X161792395Y-89678387D01*
X161792395Y-89678387D02*
X161840014Y-89726006D01*
X161840014Y-89726006D02*
X161887633Y-89821244D01*
X161887633Y-89821244D02*
X161935252Y-90011720D01*
X161935252Y-90011720D02*
X161935252Y-90249815D01*
X161935252Y-90249815D02*
X161887633Y-90440291D01*
X161887633Y-90440291D02*
X161840014Y-90535529D01*
X161840014Y-90535529D02*
X161792395Y-90583149D01*
X161792395Y-90583149D02*
X161697157Y-90630768D01*
X161697157Y-90630768D02*
X161601919Y-90630768D01*
X161601919Y-90630768D02*
X161506681Y-90583149D01*
X161506681Y-90583149D02*
X161459062Y-90535529D01*
X161459062Y-90535529D02*
X161411443Y-90440291D01*
X161411443Y-90440291D02*
X161363824Y-90249815D01*
X161363824Y-90249815D02*
X161363824Y-90011720D01*
X161363824Y-90011720D02*
X161411443Y-89821244D01*
X161411443Y-89821244D02*
X161459062Y-89726006D01*
X161459062Y-89726006D02*
X161506681Y-89678387D01*
X161506681Y-89678387D02*
X161601919Y-89630768D01*
X147681442Y-65715929D02*
X147681442Y-66715929D01*
X147681442Y-66715929D02*
X147443347Y-66715929D01*
X147443347Y-66715929D02*
X147300490Y-66668310D01*
X147300490Y-66668310D02*
X147205252Y-66573072D01*
X147205252Y-66573072D02*
X147157633Y-66477834D01*
X147157633Y-66477834D02*
X147110014Y-66287358D01*
X147110014Y-66287358D02*
X147110014Y-66144501D01*
X147110014Y-66144501D02*
X147157633Y-65954025D01*
X147157633Y-65954025D02*
X147205252Y-65858787D01*
X147205252Y-65858787D02*
X147300490Y-65763549D01*
X147300490Y-65763549D02*
X147443347Y-65715929D01*
X147443347Y-65715929D02*
X147681442Y-65715929D01*
X146252871Y-66715929D02*
X146443347Y-66715929D01*
X146443347Y-66715929D02*
X146538585Y-66668310D01*
X146538585Y-66668310D02*
X146586204Y-66620691D01*
X146586204Y-66620691D02*
X146681442Y-66477834D01*
X146681442Y-66477834D02*
X146729061Y-66287358D01*
X146729061Y-66287358D02*
X146729061Y-65906406D01*
X146729061Y-65906406D02*
X146681442Y-65811168D01*
X146681442Y-65811168D02*
X146633823Y-65763549D01*
X146633823Y-65763549D02*
X146538585Y-65715929D01*
X146538585Y-65715929D02*
X146348109Y-65715929D01*
X146348109Y-65715929D02*
X146252871Y-65763549D01*
X146252871Y-65763549D02*
X146205252Y-65811168D01*
X146205252Y-65811168D02*
X146157633Y-65906406D01*
X146157633Y-65906406D02*
X146157633Y-66144501D01*
X146157633Y-66144501D02*
X146205252Y-66239739D01*
X146205252Y-66239739D02*
X146252871Y-66287358D01*
X146252871Y-66287358D02*
X146348109Y-66334977D01*
X146348109Y-66334977D02*
X146538585Y-66334977D01*
X146538585Y-66334977D02*
X146633823Y-66287358D01*
X146633823Y-66287358D02*
X146681442Y-66239739D01*
X146681442Y-66239739D02*
X146729061Y-66144501D01*
X173818095Y-93957419D02*
X173818095Y-94766942D01*
X173818095Y-94766942D02*
X173865714Y-94862180D01*
X173865714Y-94862180D02*
X173913333Y-94909800D01*
X173913333Y-94909800D02*
X174008571Y-94957419D01*
X174008571Y-94957419D02*
X174199047Y-94957419D01*
X174199047Y-94957419D02*
X174294285Y-94909800D01*
X174294285Y-94909800D02*
X174341904Y-94862180D01*
X174341904Y-94862180D02*
X174389523Y-94766942D01*
X174389523Y-94766942D02*
X174389523Y-93957419D01*
X175389523Y-94957419D02*
X174818095Y-94957419D01*
X175103809Y-94957419D02*
X175103809Y-93957419D01*
X175103809Y-93957419D02*
X175008571Y-94100276D01*
X175008571Y-94100276D02*
X174913333Y-94195514D01*
X174913333Y-94195514D02*
X174818095Y-94243133D01*
X169935253Y-80630768D02*
X169935253Y-79630768D01*
X169935253Y-79630768D02*
X170173348Y-79630768D01*
X170173348Y-79630768D02*
X170316205Y-79678387D01*
X170316205Y-79678387D02*
X170411443Y-79773625D01*
X170411443Y-79773625D02*
X170459062Y-79868863D01*
X170459062Y-79868863D02*
X170506681Y-80059339D01*
X170506681Y-80059339D02*
X170506681Y-80202196D01*
X170506681Y-80202196D02*
X170459062Y-80392672D01*
X170459062Y-80392672D02*
X170411443Y-80487910D01*
X170411443Y-80487910D02*
X170316205Y-80583149D01*
X170316205Y-80583149D02*
X170173348Y-80630768D01*
X170173348Y-80630768D02*
X169935253Y-80630768D01*
X170982872Y-80630768D02*
X171173348Y-80630768D01*
X171173348Y-80630768D02*
X171268586Y-80583149D01*
X171268586Y-80583149D02*
X171316205Y-80535529D01*
X171316205Y-80535529D02*
X171411443Y-80392672D01*
X171411443Y-80392672D02*
X171459062Y-80202196D01*
X171459062Y-80202196D02*
X171459062Y-79821244D01*
X171459062Y-79821244D02*
X171411443Y-79726006D01*
X171411443Y-79726006D02*
X171363824Y-79678387D01*
X171363824Y-79678387D02*
X171268586Y-79630768D01*
X171268586Y-79630768D02*
X171078110Y-79630768D01*
X171078110Y-79630768D02*
X170982872Y-79678387D01*
X170982872Y-79678387D02*
X170935253Y-79726006D01*
X170935253Y-79726006D02*
X170887634Y-79821244D01*
X170887634Y-79821244D02*
X170887634Y-80059339D01*
X170887634Y-80059339D02*
X170935253Y-80154577D01*
X170935253Y-80154577D02*
X170982872Y-80202196D01*
X170982872Y-80202196D02*
X171078110Y-80249815D01*
X171078110Y-80249815D02*
X171268586Y-80249815D01*
X171268586Y-80249815D02*
X171363824Y-80202196D01*
X171363824Y-80202196D02*
X171411443Y-80154577D01*
X171411443Y-80154577D02*
X171459062Y-80059339D01*
X159833333Y-78862180D02*
X159785714Y-78909800D01*
X159785714Y-78909800D02*
X159642857Y-78957419D01*
X159642857Y-78957419D02*
X159547619Y-78957419D01*
X159547619Y-78957419D02*
X159404762Y-78909800D01*
X159404762Y-78909800D02*
X159309524Y-78814561D01*
X159309524Y-78814561D02*
X159261905Y-78719323D01*
X159261905Y-78719323D02*
X159214286Y-78528847D01*
X159214286Y-78528847D02*
X159214286Y-78385990D01*
X159214286Y-78385990D02*
X159261905Y-78195514D01*
X159261905Y-78195514D02*
X159309524Y-78100276D01*
X159309524Y-78100276D02*
X159404762Y-78005038D01*
X159404762Y-78005038D02*
X159547619Y-77957419D01*
X159547619Y-77957419D02*
X159642857Y-77957419D01*
X159642857Y-77957419D02*
X159785714Y-78005038D01*
X159785714Y-78005038D02*
X159833333Y-78052657D01*
X160690476Y-78290752D02*
X160690476Y-78957419D01*
X160452381Y-77909800D02*
X160214286Y-78624085D01*
X160214286Y-78624085D02*
X160833333Y-78624085D01*
X139333333Y-65457419D02*
X139000000Y-64981228D01*
X138761905Y-65457419D02*
X138761905Y-64457419D01*
X138761905Y-64457419D02*
X139142857Y-64457419D01*
X139142857Y-64457419D02*
X139238095Y-64505038D01*
X139238095Y-64505038D02*
X139285714Y-64552657D01*
X139285714Y-64552657D02*
X139333333Y-64647895D01*
X139333333Y-64647895D02*
X139333333Y-64790752D01*
X139333333Y-64790752D02*
X139285714Y-64885990D01*
X139285714Y-64885990D02*
X139238095Y-64933609D01*
X139238095Y-64933609D02*
X139142857Y-64981228D01*
X139142857Y-64981228D02*
X138761905Y-64981228D01*
X139666667Y-64457419D02*
X140333333Y-64457419D01*
X140333333Y-64457419D02*
X139904762Y-65457419D01*
X126411442Y-80715929D02*
X126411442Y-81715929D01*
X126411442Y-81715929D02*
X126173347Y-81715929D01*
X126173347Y-81715929D02*
X126030490Y-81668310D01*
X126030490Y-81668310D02*
X125935252Y-81573072D01*
X125935252Y-81573072D02*
X125887633Y-81477834D01*
X125887633Y-81477834D02*
X125840014Y-81287358D01*
X125840014Y-81287358D02*
X125840014Y-81144501D01*
X125840014Y-81144501D02*
X125887633Y-80954025D01*
X125887633Y-80954025D02*
X125935252Y-80858787D01*
X125935252Y-80858787D02*
X126030490Y-80763549D01*
X126030490Y-80763549D02*
X126173347Y-80715929D01*
X126173347Y-80715929D02*
X126411442Y-80715929D01*
X125506680Y-81715929D02*
X124887633Y-81715929D01*
X124887633Y-81715929D02*
X125220966Y-81334977D01*
X125220966Y-81334977D02*
X125078109Y-81334977D01*
X125078109Y-81334977D02*
X124982871Y-81287358D01*
X124982871Y-81287358D02*
X124935252Y-81239739D01*
X124935252Y-81239739D02*
X124887633Y-81144501D01*
X124887633Y-81144501D02*
X124887633Y-80906406D01*
X124887633Y-80906406D02*
X124935252Y-80811168D01*
X124935252Y-80811168D02*
X124982871Y-80763549D01*
X124982871Y-80763549D02*
X125078109Y-80715929D01*
X125078109Y-80715929D02*
X125363823Y-80715929D01*
X125363823Y-80715929D02*
X125459061Y-80763549D01*
X125459061Y-80763549D02*
X125506680Y-80811168D01*
X152333333Y-93957419D02*
X152000000Y-93481228D01*
X151761905Y-93957419D02*
X151761905Y-92957419D01*
X151761905Y-92957419D02*
X152142857Y-92957419D01*
X152142857Y-92957419D02*
X152238095Y-93005038D01*
X152238095Y-93005038D02*
X152285714Y-93052657D01*
X152285714Y-93052657D02*
X152333333Y-93147895D01*
X152333333Y-93147895D02*
X152333333Y-93290752D01*
X152333333Y-93290752D02*
X152285714Y-93385990D01*
X152285714Y-93385990D02*
X152238095Y-93433609D01*
X152238095Y-93433609D02*
X152142857Y-93481228D01*
X152142857Y-93481228D02*
X151761905Y-93481228D01*
X152666667Y-92957419D02*
X153285714Y-92957419D01*
X153285714Y-92957419D02*
X152952381Y-93338371D01*
X152952381Y-93338371D02*
X153095238Y-93338371D01*
X153095238Y-93338371D02*
X153190476Y-93385990D01*
X153190476Y-93385990D02*
X153238095Y-93433609D01*
X153238095Y-93433609D02*
X153285714Y-93528847D01*
X153285714Y-93528847D02*
X153285714Y-93766942D01*
X153285714Y-93766942D02*
X153238095Y-93862180D01*
X153238095Y-93862180D02*
X153190476Y-93909800D01*
X153190476Y-93909800D02*
X153095238Y-93957419D01*
X153095238Y-93957419D02*
X152809524Y-93957419D01*
X152809524Y-93957419D02*
X152714286Y-93909800D01*
X152714286Y-93909800D02*
X152666667Y-93862180D01*
%TO.C,R2*%
X181250000Y-83750000D02*
X183750000Y-83750000D01*
X183750000Y-90250000D01*
X181250000Y-90250000D01*
X181250000Y-83750000D01*
%TO.C,D11*%
X142100000Y-107000000D02*
X142500000Y-107000000D01*
X142350000Y-106750000D02*
X142350000Y-107250000D01*
X142600000Y-107000000D02*
X142100000Y-107000000D01*
X139640000Y-99895000D02*
X142360000Y-99895000D01*
X142360000Y-105105000D01*
X139640000Y-105105000D01*
X139640000Y-99895000D01*
%TO.C,U2*%
X111101500Y-92562500D02*
X130278500Y-92562500D01*
X130278500Y-98912500D01*
X111101500Y-98912500D01*
X111101500Y-92562500D01*
%TO.C,D8*%
X166501418Y-61501419D02*
X166501418Y-69845277D01*
X173848348Y-65673349D02*
X175118348Y-65673349D01*
X174483348Y-66308349D02*
X174483348Y-65038349D01*
X166501418Y-61501419D02*
G75*
G02*
X166501418Y-69845279I4171930J-4171930D01*
G01*
%TO.C,D5*%
X128133348Y-55038349D02*
X128133348Y-56308349D01*
X128768348Y-55673349D02*
X127498348Y-55673349D01*
X136115278Y-59845279D02*
X136115278Y-51501421D01*
X136115278Y-59845279D02*
G75*
G02*
X136115278Y-51501419I-4171930J4171930D01*
G01*
%TO.C,R11*%
X146350000Y-84650000D02*
X149650000Y-84650000D01*
X149650000Y-86350000D01*
X146350000Y-86350000D01*
X146350000Y-84650000D01*
%TO.C,D4*%
X119403348Y-65038349D02*
X119403348Y-66308349D01*
X120038348Y-65673349D02*
X118768348Y-65673349D01*
X127385278Y-69845279D02*
X127385278Y-61501421D01*
X127385278Y-69845279D02*
G75*
G02*
X127385278Y-61501419I-4171930J4171930D01*
G01*
%TO.C,R5*%
X146350000Y-86650000D02*
X149650000Y-86650000D01*
X149650000Y-88350000D01*
X146350000Y-88350000D01*
X146350000Y-86650000D01*
%TO.C,R9*%
X157850000Y-63150000D02*
X161150000Y-63150000D01*
X161150000Y-64850000D01*
X157850000Y-64850000D01*
X157850000Y-63150000D01*
%TO.C,R10*%
X157850000Y-65150000D02*
X161150000Y-65150000D01*
X161150000Y-66850000D01*
X157850000Y-66850000D01*
X157850000Y-65150000D01*
%TO.C,C3*%
X157500000Y-72500000D02*
X162500000Y-72500000D01*
X162500000Y-76500000D01*
X157500000Y-76500000D01*
X157500000Y-72500000D01*
%TO.C,C1*%
X180500000Y-93500000D02*
X184500000Y-93500000D01*
X184500000Y-98500000D01*
X180500000Y-98500000D01*
X180500000Y-93500000D01*
%TO.C,C2*%
X173200000Y-101350000D02*
X176800000Y-101350000D01*
X176800000Y-103650000D01*
X173200000Y-103650000D01*
X173200000Y-101350000D01*
%TO.C,R1*%
X170750000Y-87250000D02*
X177250000Y-87250000D01*
X177250000Y-89750000D01*
X170750000Y-89750000D01*
X170750000Y-87250000D01*
%TO.C,R6*%
X133350000Y-66150000D02*
X136650000Y-66150000D01*
X136650000Y-67850000D01*
X133350000Y-67850000D01*
X133350000Y-66150000D01*
%TO.C,D1*%
X144017334Y-96707695D02*
X144017334Y-105051553D01*
X151364264Y-100879625D02*
X152634264Y-100879625D01*
X151999264Y-101514625D02*
X151999264Y-100244625D01*
X144017334Y-96707695D02*
G75*
G02*
X144017334Y-105051555I4171930J-4171930D01*
G01*
%TO.C,R8*%
X157850000Y-67150000D02*
X161150000Y-67150000D01*
X161150000Y-68850000D01*
X157850000Y-68850000D01*
X157850000Y-67150000D01*
%TO.C,B3*%
D11*
X142016203Y-110743708D02*
X155986203Y-110743708D01*
X142016203Y-124713708D02*
X142016203Y-110743708D01*
X155986203Y-110743708D02*
X155986203Y-124713708D01*
X155986203Y-124713708D02*
X142016203Y-124713708D01*
%TO.C,R12*%
D10*
X146350000Y-90650000D02*
X149650000Y-90650000D01*
X149650000Y-92350000D01*
X146350000Y-92350000D01*
X146350000Y-90650000D01*
%TO.C,R4*%
X146350000Y-88650000D02*
X149650000Y-88650000D01*
X149650000Y-90350000D01*
X146350000Y-90350000D01*
X146350000Y-88650000D01*
%TO.C,D2*%
X133363348Y-90038349D02*
X133363348Y-91308349D01*
X133998348Y-90673349D02*
X132728348Y-90673349D01*
X141345278Y-94845279D02*
X141345278Y-86501421D01*
X141345278Y-94845279D02*
G75*
G02*
X141345278Y-86501419I-4171930J4171930D01*
G01*
%TO.C,VR1*%
X132513950Y-72700000D02*
X148263950Y-72700000D01*
X148263950Y-83100000D01*
X132513950Y-83100000D01*
X132513950Y-72700000D01*
%TO.C,D7*%
X156863348Y-55038349D02*
X156863348Y-56308349D01*
X157498348Y-55673349D02*
X156228348Y-55673349D01*
X164845278Y-59845279D02*
X164845278Y-51501421D01*
X164845278Y-59845279D02*
G75*
G02*
X164845278Y-51501419I-4171930J4171930D01*
G01*
%TO.C,D10*%
X156501418Y-86501419D02*
X156501418Y-94845277D01*
X163848348Y-90673349D02*
X165118348Y-90673349D01*
X164483348Y-91308349D02*
X164483348Y-90038349D01*
X156501418Y-86501419D02*
G75*
G02*
X156501418Y-94845279I4171930J-4171930D01*
G01*
%TO.C,D6*%
X143133348Y-65038349D02*
X143133348Y-66308349D01*
X143768348Y-65673349D02*
X142498348Y-65673349D01*
X151115278Y-69845279D02*
X151115278Y-61501421D01*
X151115278Y-69845279D02*
G75*
G02*
X151115278Y-61501419I-4171930J4171930D01*
G01*
%TO.C,U1*%
D11*
X169500000Y-93500000D02*
X169500000Y-94750000D01*
X169500000Y-96750000D02*
X169500000Y-98000000D01*
X169500000Y-98000000D02*
X179780000Y-98000000D01*
X179780000Y-93500000D02*
X169500000Y-93500000D01*
X179780000Y-98000000D02*
X179780000Y-93500000D01*
X169500000Y-94750000D02*
G75*
G02*
X169500000Y-96750000I0J-1000000D01*
G01*
%TO.C,D9*%
D10*
X166501418Y-76501419D02*
X166501418Y-84845277D01*
X173848348Y-80673349D02*
X175118348Y-80673349D01*
X174483348Y-81308349D02*
X174483348Y-80038349D01*
X166501418Y-76501419D02*
G75*
G02*
X166501418Y-84845279I4171930J-4171930D01*
G01*
%TO.C,C4*%
X157500000Y-77000000D02*
X162500000Y-77000000D01*
X162500000Y-81000000D01*
X157500000Y-81000000D01*
X157500000Y-77000000D01*
%TO.C,R7*%
X133350000Y-64150000D02*
X136650000Y-64150000D01*
X136650000Y-65850000D01*
X133350000Y-65850000D01*
X133350000Y-64150000D01*
%TO.C,D3*%
X121863348Y-80038349D02*
X121863348Y-81308349D01*
X122498348Y-80673349D02*
X121228348Y-80673349D01*
X129845278Y-84845279D02*
X129845278Y-76501421D01*
X129845278Y-84845279D02*
G75*
G02*
X129845278Y-76501419I-4171930J4171930D01*
G01*
%TO.C,R3*%
X146350000Y-92650000D02*
X149650000Y-92650000D01*
X149650000Y-94350000D01*
X146350000Y-94350000D01*
X146350000Y-92650000D01*
%TD*%
M02*
