%TF.GenerationSoftware,KiCad,Pcbnew,10.0.3*%
%TF.CreationDate,2026-06-19T10:01:34-04:00*%
%TF.ProjectId,blinking_heart_pcb_keychain,626c696e-6b69-46e6-975f-68656172745f,rev?*%
%TF.SameCoordinates,Original*%
%TF.FileFunction,Legend,Bot*%
%TF.FilePolarity,Positive*%
%FSLAX46Y46*%
G04 Gerber Fmt 4.6, Leading zero omitted, Abs format (unit mm)*
G04 Created by KiCad (PCBNEW 10.0.3) date 2026-06-19 10:01:34*
%MOMM*%
%LPD*%
G01*
G04 APERTURE LIST*
%ADD10C,0.100000*%
G04 APERTURE END LIST*
D10*
X126566390Y-116954761D02*
X126518771Y-116811904D01*
X126518771Y-116811904D02*
X126471152Y-116764285D01*
X126471152Y-116764285D02*
X126375914Y-116716666D01*
X126375914Y-116716666D02*
X126233057Y-116716666D01*
X126233057Y-116716666D02*
X126137819Y-116764285D01*
X126137819Y-116764285D02*
X126090200Y-116811904D01*
X126090200Y-116811904D02*
X126042580Y-116907142D01*
X126042580Y-116907142D02*
X126042580Y-117288094D01*
X126042580Y-117288094D02*
X127042580Y-117288094D01*
X127042580Y-117288094D02*
X127042580Y-116954761D01*
X127042580Y-116954761D02*
X126994961Y-116859523D01*
X126994961Y-116859523D02*
X126947342Y-116811904D01*
X126947342Y-116811904D02*
X126852104Y-116764285D01*
X126852104Y-116764285D02*
X126756866Y-116764285D01*
X126756866Y-116764285D02*
X126661628Y-116811904D01*
X126661628Y-116811904D02*
X126614009Y-116859523D01*
X126614009Y-116859523D02*
X126566390Y-116954761D01*
X126566390Y-116954761D02*
X126566390Y-117288094D01*
X126042580Y-115764285D02*
X126042580Y-116335713D01*
X126042580Y-116049999D02*
X127042580Y-116049999D01*
X127042580Y-116049999D02*
X126899723Y-116145237D01*
X126899723Y-116145237D02*
X126804485Y-116240475D01*
X126804485Y-116240475D02*
X126756866Y-116335713D01*
X166566390Y-116954761D02*
X166518771Y-116811904D01*
X166518771Y-116811904D02*
X166471152Y-116764285D01*
X166471152Y-116764285D02*
X166375914Y-116716666D01*
X166375914Y-116716666D02*
X166233057Y-116716666D01*
X166233057Y-116716666D02*
X166137819Y-116764285D01*
X166137819Y-116764285D02*
X166090200Y-116811904D01*
X166090200Y-116811904D02*
X166042580Y-116907142D01*
X166042580Y-116907142D02*
X166042580Y-117288094D01*
X166042580Y-117288094D02*
X167042580Y-117288094D01*
X167042580Y-117288094D02*
X167042580Y-116954761D01*
X167042580Y-116954761D02*
X166994961Y-116859523D01*
X166994961Y-116859523D02*
X166947342Y-116811904D01*
X166947342Y-116811904D02*
X166852104Y-116764285D01*
X166852104Y-116764285D02*
X166756866Y-116764285D01*
X166756866Y-116764285D02*
X166661628Y-116811904D01*
X166661628Y-116811904D02*
X166614009Y-116859523D01*
X166614009Y-116859523D02*
X166566390Y-116954761D01*
X166566390Y-116954761D02*
X166566390Y-117288094D01*
X166947342Y-116335713D02*
X166994961Y-116288094D01*
X166994961Y-116288094D02*
X167042580Y-116192856D01*
X167042580Y-116192856D02*
X167042580Y-115954761D01*
X167042580Y-115954761D02*
X166994961Y-115859523D01*
X166994961Y-115859523D02*
X166947342Y-115811904D01*
X166947342Y-115811904D02*
X166852104Y-115764285D01*
X166852104Y-115764285D02*
X166756866Y-115764285D01*
X166756866Y-115764285D02*
X166614009Y-115811904D01*
X166614009Y-115811904D02*
X166042580Y-116383332D01*
X166042580Y-116383332D02*
X166042580Y-115764285D01*
%TO.C,B1*%
X121950000Y-105950000D02*
X138050000Y-105950000D01*
X138050000Y-127150000D01*
X121950000Y-127150000D01*
X121950000Y-105950000D01*
%TO.C,B2*%
X161950000Y-105950000D02*
X178050000Y-105950000D01*
X178050000Y-127150000D01*
X161950000Y-127150000D01*
X161950000Y-105950000D01*
%TD*%
M02*
