M48
; DRILL file KiCad 10.0.3 date 2026-06-19T10:01:38
; FORMAT={-:-/ absolute / metric / decimal}
; #@! TF.CreationDate,2026-06-19T10:01:38-04:00
; #@! TF.GenerationSoftware,Kicad,Pcbnew,10.0.3
; #@! TF.FileFunction,Plated,1,2,PTH
FMAT,2
METRIC
; #@! TA.AperFunction,Plated,PTH,ViaDrill
T1C0.300
; #@! TA.AperFunction,Plated,PTH,ComponentDrill
T2C0.510
; #@! TA.AperFunction,Plated,PTH,ComponentDrill
T3C0.560
; #@! TA.AperFunction,Plated,PTH,ComponentDrill
T4C0.570
; #@! TA.AperFunction,Plated,PTH,ComponentDrill
T5C0.580
; #@! TA.AperFunction,Plated,PTH,ComponentDrill
T6C0.630
; #@! TA.AperFunction,Plated,PTH,ComponentDrill
T7C0.800
; #@! TA.AperFunction,Plated,PTH,ComponentDrill
T8C0.910
; #@! TA.AperFunction,Plated,PTH,ComponentDrill
T9C0.930
; #@! TA.AperFunction,Plated,PTH,ComponentDrill
T10C1.000
; #@! TA.AperFunction,Plated,PTH,ComponentDrill
T11C1.500
%
G90
G05
T1
X112.0Y-122.0
X113.0Y-57.765
X114.5Y-65.5
X116.88Y-108.5
X117.0Y-72.0
X119.0Y-53.5
X129.5Y-70.0
X130.0Y-111.0
X132.5Y-84.5
X141.0Y-76.0
X160.5Y-108.5
X164.0Y-114.0
X167.5Y-93.5
X168.5Y-111.5
X173.5Y-94.5
T2
X132.9Y-65.0
X132.9Y-67.0
X137.1Y-65.0
X137.1Y-67.0
X145.9Y-85.5
X145.9Y-87.5
X145.9Y-89.5
X145.9Y-91.5
X145.9Y-93.5
X150.1Y-85.5
X150.1Y-87.5
X150.1Y-89.5
X150.1Y-91.5
X150.1Y-93.5
X157.4Y-64.0
X157.4Y-66.0
X157.4Y-68.0
X161.6Y-64.0
X161.6Y-66.0
X161.6Y-68.0
T3
X111.8Y-90.975
X111.8Y-100.5
X114.34Y-90.975
X114.34Y-100.5
X116.88Y-90.975
X116.88Y-100.5
X119.42Y-90.975
X119.42Y-100.5
X121.96Y-90.975
X121.96Y-100.5
X124.5Y-90.975
X124.5Y-100.5
X127.04Y-90.975
X127.04Y-100.5
X129.58Y-90.975
X129.58Y-100.5
T4
X170.75Y-88.5
X177.25Y-88.5
X182.5Y-83.75
X182.5Y-90.25
T5
X172.5Y-102.5
X177.5Y-102.5
T6
X157.5Y-74.5
X157.5Y-79.0
X162.5Y-74.5
X162.5Y-79.0
X182.5Y-93.5
X182.5Y-98.5
T7
X170.83Y-91.94
X170.83Y-99.56
X173.37Y-91.94
X173.37Y-99.56
X175.91Y-91.94
X175.91Y-99.56
X178.45Y-91.94
X178.45Y-99.56
T8
X154.224Y-75.2
X154.224Y-77.9
X154.236Y-80.6
T9
X141.0Y-99.195
X141.0Y-105.805
T10
X121.943Y-65.673
X124.403Y-80.673
X124.483Y-65.673
X126.943Y-80.673
X130.673Y-55.673
X133.213Y-55.673
X135.903Y-90.673
X138.443Y-90.673
X145.673Y-65.673
X146.919Y-100.88
X148.213Y-65.673
X149.459Y-100.88
X159.403Y-55.673
X159.403Y-90.673
X161.943Y-55.673
X161.943Y-90.673
X169.403Y-65.673
X169.403Y-80.673
X171.943Y-65.673
X171.943Y-80.673
T11
X145.191Y-115.189
X151.541Y-112.649
M30
